  <svg xmlns="http://www.w3.org/2000/svg" width="227" height="40" viewBox="0 0 227 40" fill="#1B3641">
  <defs>
  <symbol id="icon-arrow" viewBox="0 0 32 32">
<path d="M24.947 10.947c-0.242-0.244-0.577-0.394-0.947-0.394s-0.705 0.151-0.947 0.394l-6.107 6.107c-0.242 0.244-0.577 0.394-0.947 0.394s-0.705-0.151-0.947-0.394l-6.107-6.107c-0.242-0.244-0.577-0.394-0.947-0.394s-0.705 0.151-0.947 0.394l-0 0c-0.24 0.241-0.388 0.573-0.388 0.94s0.148 0.699 0.388 0.94l6.12 6.12c0.724 0.723 1.723 1.17 2.827 1.17s2.103-0.447 2.827-1.17l6.12-6.12c0.24-0.241 0.388-0.573 0.388-0.94s-0.148-0.699-0.388-0.94l0 0z"></path>
</symbol>
<symbol id="icon-dots-vertical" viewBox="0 0 32 32">
<path d="M18.667 6.667c0 1.473-1.194 2.667-2.667 2.667s-2.667-1.194-2.667-2.667c0-1.473 1.194-2.667 2.667-2.667s2.667 1.194 2.667 2.667z"></path>
<path d="M18.667 16c0 1.473-1.194 2.667-2.667 2.667s-2.667-1.194-2.667-2.667c0-1.473 1.194-2.667 2.667-2.667s2.667 1.194 2.667 2.667z"></path>
<path d="M16 28c1.473 0 2.667-1.194 2.667-2.667s-1.194-2.667-2.667-2.667c-1.473 0-2.667 1.194-2.667 2.667s1.194 2.667 2.667 2.667z"></path>
</symbol>
<symbol id="icon-arrow-sort" viewBox="0 0 32 32">
<path d="M16 26.133l-7.067-7.067c-0.233-0.263-0.572-0.427-0.948-0.427-0.436 0-0.821 0.22-1.049 0.556l-0.003 0.004c-0.166 0.227-0.266 0.512-0.266 0.821 0 0.381 0.152 0.727 0.4 0.979l-0-0 8 7.933c0.232 0.253 0.564 0.41 0.933 0.41s0.701-0.158 0.933-0.409l0.001-0.001 8-7.933c0.247-0.252 0.399-0.598 0.399-0.979 0-0.308-0.1-0.594-0.269-0.825l0.003 0.004c-0.231-0.34-0.615-0.56-1.052-0.56-0.377 0-0.715 0.165-0.947 0.426l-0.001 0.001z"></path>
<path d="M16 5.867l7.067 7.067c0.233 0.263 0.572 0.427 0.948 0.427 0.436 0 0.821-0.22 1.049-0.556l0.003-0.004c0.166-0.227 0.266-0.512 0.266-0.821 0-0.381-0.152-0.727-0.4-0.979l0 0-8-7.933c-0.232-0.253-0.564-0.41-0.933-0.41s-0.701 0.158-0.932 0.409l-0.001 0.001-8 7.933c-0.247 0.252-0.399 0.598-0.399 0.979 0 0.308 0.1 0.594 0.269 0.825l-0.003-0.004c0.231 0.34 0.615 0.56 1.052 0.56 0.377 0 0.715-0.165 0.947-0.426l0.001-0.001z"></path>
</symbol>
<symbol id="icon-trash" viewBox="0 0 32 32">
<path d="M26 8h-20c-0.552 0-1-0.447-1-1 0-0.552 0.448-1 1-1h20c0.552 0 1 0.448 1 1 0 0.553-0.448 1-1 1v0zM25 28c0 1.104-0.896 2-2 2h-14c-1.104 0-2-0.896-2-2v-18h18v18zM13 3c0-0.553 0.448-1 1-1h4c0.552 0 1 0.447 1 1v1h-6v-1zM27 4h-6v-2c0-1.104-0.896-2-2-2h-6c-1.104 0-2 0.896-2 2v2h-6c-1.104 0-2 0.896-2 2v2c0 1.104 0.896 2 2 2v18c0 2.209 1.791 4 4 4h14c2.209 0 4-1.791 4-4v-18c1.104 0 2-0.896 2-2v-2c0-1.104-0.896-2-2-2v0zM16 28c0.552 0 1-0.447 1-1v-12c0-0.552-0.448-1-1-1s-1 0.448-1 1v12c0 0.553 0.448 1 1 1v0zM11 28c0.552 0 1-0.447 1-1v-12c0-0.552-0.448-1-1-1s-1 0.448-1 1v12c0 0.553 0.448 1 1 1v0zM21 28c0.552 0 1-0.447 1-1v-12c0-0.552-0.448-1-1-1s-1 0.448-1 1v12c0 0.553 0.448 1 1 1v0z"></path>
</symbol>
<symbol id="icon-pen" viewBox="0 0 32 32">
<path d="M28.162 3.609c-1.562-1.562-4.095-1.562-5.657 0l-12.781 12.781c-0.171 0.171-0.292 0.385-0.351 0.619l-1.333 5.333c-0.114 0.454 0.020 0.935 0.351 1.266s0.812 0.464 1.266 0.351l5.333-1.333c0.235-0.059 0.449-0.18 0.619-0.351l12.781-12.781c1.562-1.562 1.562-4.095 0-5.657l-0.229-0.229zM24.391 5.495c0.521-0.521 1.365-0.521 1.886 0l0.229 0.229c0.521 0.521 0.521 1.365 0 1.886l-1.355 1.355-2.074-2.155 1.315-1.315zM21.19 8.696l2.074 2.155-9.279 9.279-2.819 0.705 0.705-2.819 9.319-9.319zM5.333 10.667c0-0.736 0.597-1.333 1.333-1.333h6.667c0.736 0 1.333-0.597 1.333-1.333s-0.597-1.333-1.333-1.333h-6.667c-2.209 0-4 1.791-4 4v14.667c0 2.209 1.791 4 4 4h14.667c2.209 0 4-1.791 4-4v-6.667c0-0.736-0.597-1.333-1.333-1.333s-1.333 0.597-1.333 1.333v6.667c0 0.736-0.597 1.333-1.333 1.333h-14.667c-0.736 0-1.333-0.597-1.333-1.333v-14.667z"></path>
</symbol>
<symbol id="icon-profile" viewBox="0 0 32 32">
<path d="M25.661 0c-0.005 0-0.010 0.003-0.014 0.003s-0.008-0.003-0.013-0.003h0.027zM32 6.4c0 0.883-0.719 1.6-1.606 1.6h-3.1v3.2c0 0.883-0.747 1.6-1.633 1.6h-0.027c-0.888 0-1.551-0.717-1.551-1.6v-3.2h-3.322c-0.886 0-1.606-0.717-1.606-1.6s0.719-1.6 1.606-1.6h3.322v-3.2c0-0.878 0.684-1.589 1.564-1.597 0.881 0.008 1.647 0.718 1.647 1.597v3.2h3.1c0.886 0 1.606 0.717 1.606 1.6v0zM12.801 19.043c-0.022 0-0.045-0.003-0.067-0.003s-0.045 0.003-0.067 0.003c-1.739-0.037-3.144-1.451-3.144-3.194 0-1.765 1.44-3.2 3.211-3.2s3.211 1.435 3.211 3.2c0 1.742-1.405 3.157-3.144 3.194v0zM17.592 19.992c1.331-1.549 1.973-3.704 1.283-6.034-0.637-2.15-2.452-3.846-4.647-4.341-4.197-0.942-7.917 2.211-7.917 6.232 0 1.589 0.602 3.024 1.564 4.142-4.147 1.688-7.212 5.603-7.859 10.195-0.135 0.958 0.634 1.813 1.604 1.813 0.793 0 1.464-0.581 1.577-1.365 0.662-4.651 4.651-8.358 9.47-8.392 0.022 0 0.043 0.006 0.067 0.006 0.022 0 0.045-0.006 0.067-0.006 4.818 0.034 8.808 3.741 9.47 8.394 0.111 0.782 0.782 1.363 1.577 1.363v0c0.97 0 1.739-0.854 1.604-1.811-0.647-4.592-3.712-8.507-7.859-10.197v0z"></path>
</symbol>

</defs>
</svg>


